HIERARCHY
ROOT Hips
{
  OFFSET -102.467 93.6631 130.069
  CHANNELS 6 Xposition Yposition Zposition Zrotation Xrotation Yrotation
  JOINT LeftUpLeg
  {
    OFFSET 8.64259 1.95398 -2.38835
    CHANNELS 3 Zrotation Xrotation Yrotation
    JOINT LeftLeg
    {
      OFFSET 43.7702 0 0
      CHANNELS 3 Zrotation Xrotation Yrotation
      JOINT LeftFoot
      {
        OFFSET 40.6238 0 0
        CHANNELS 3 Zrotation Xrotation Yrotation
        JOINT LeftToeBase
        {
          OFFSET 12.7242 0 0
          CHANNELS 3 Zrotation Xrotation Yrotation
          End Site
          {
            OFFSET 0 0 0
          }
        }
      }
    }
  }
  JOINT RightUpLeg
  {
    OFFSET -8.2249 1.95398 -2.59336
    CHANNELS 3 Zrotation Xrotation Yrotation
    JOINT RightLeg
    {
      OFFSET 43.5653 0 0
      CHANNELS 3 Zrotation Xrotation Yrotation
      JOINT RightFoot
      {
        OFFSET 40.6238 0 0
        CHANNELS 3 Zrotation Xrotation Yrotation
        JOINT RightToeBase
        {
          OFFSET 12.7242 0 0
          CHANNELS 3 Zrotation Xrotation Yrotation
          End Site
          {
            OFFSET 0 0 0
          }
        }
      }
    }
  }
  JOINT Spine
  {
    OFFSET 0.165834 0.87714 6.61349
    CHANNELS 3 Zrotation Xrotation Yrotation
    JOINT Spine1
    {
      OFFSET 7.38963 1.71661e-005 0
      CHANNELS 3 Zrotation Xrotation Yrotation
      JOINT Spine2
      {
        OFFSET 11.9445 1.14441e-005 0
        CHANNELS 3 Zrotation Xrotation Yrotation
        JOINT Spine3
        {
          OFFSET 14.7254 4.19617e-005 0
          CHANNELS 3 Zrotation Xrotation Yrotation
          JOINT Spine4
          {
            OFFSET 10.9679 0 0
            CHANNELS 3 Zrotation Xrotation Yrotation
            JOINT RightShoulder
            {
              OFFSET 2.46616 -1.6653 3.69651
              CHANNELS 3 Zrotation Xrotation Yrotation
              JOINT RightArm
              {
                OFFSET 13.0012 0 0
                CHANNELS 3 Zrotation Xrotation Yrotation
                JOINT RightForeArm
                {
                  OFFSET 28.7848 1.52588e-005 0
                  CHANNELS 3 Zrotation Xrotation Yrotation
                  JOINT RightHand
                  {
                    OFFSET 26.5688 1.52588e-005 0
                    CHANNELS 3 Zrotation Xrotation Yrotation
                    End Site
                    {
                      OFFSET 0 0 0
                    }
                  }
                }
              }
            }
            JOINT LeftShoulder
            {
              OFFSET 2.38034 -1.29275 -3.7523
              CHANNELS 3 Zrotation Xrotation Yrotation
              JOINT LeftArm
              {
                OFFSET 16.3182 6.10351e-005 0
                CHANNELS 3 Zrotation Xrotation Yrotation
                JOINT LeftForeArm
                {
                  OFFSET 27.0901 0 0
                  CHANNELS 3 Zrotation Xrotation Yrotation
                  JOINT LeftHand
                  {
                    OFFSET 24.5451 1.52588e-005 0
                    CHANNELS 3 Zrotation Xrotation Yrotation
                    End Site
                    {
                      OFFSET 0 0 0
                    }
                  }
                }
              }
            }
            JOINT Neck
            {
              OFFSET 5.0226 -0.0266342 0
              CHANNELS 3 Zrotation Xrotation Yrotation
              JOINT Head
              {
                OFFSET 6.69363 2.86102e-005 0
                CHANNELS 3 Zrotation Xrotation Yrotation
                End Site
                {
                  OFFSET 0 0 0
                }
              }
            }
          }
        }
      }
    }
  }
}
MOTION
Frames:	18
Frame Time:	0.0416667
142.496 98.4081 -141.549 107.795 46.4306 79.6942 -175.349 10.4204 90.3433 -18.1307 19.9856 1.11792 49.6139 -4.47959 14.7174 31.299 -0.261733 0.340538 172.91 -16.0277 87.4327 -25.9636 -14.864 -1.0076 59.6666 2.626 7.84861 59.9888 -5.89853 4.26426 0.549196 7.73736 -90.1172 11.401 1.03817 -0.338205 -0.269575 1.02228 -0.383582 -22.808 1.09181 -0.0105242 -2.7954 1.09183 -0.010515 101.21 -51.7312 -83.6285 28.1573 -11.3931 -6.17346 -0.433253 0.990523 -26.2437 -13.9508 -0.259341 -3.10638 -79.1436 -56.2541 95.0392 -22.6172 4.55941 -4.01353 -2.29132 28.0028 -0.0038789 -14.2866 -0.7663 2.09966 -21.4913 0.209891 -4.68584 -25.7489 -0.812434 4.18772 
143.673 96.572 -143.315 106.88 46.8183 78.8787 -176.268 15.6284 88.3892 -29.6395 15.7699 1.19799 54.2676 -0.861298 14.4449 36.9118 -1.11601 -1.26398 172.19 -0.479439 84.7561 -51.6624 -11.3095 -1.38924 49.496 9.95274 15.5611 40.8671 -0.0080408 10.1908 0.558038 7.7407 -89.7833 11.3919 1.21174 0.311265 -0.278491 1.22425 0.257619 -22.8172 1.06216 0.66108 -2.80449 1.06215 0.66108 102.161 -51.599 -82.1756 31.5292 -7.92438 -4.59898 -1.75369 -3.21292 -18.3674 -10.6175 -0.481623 0.0270122 -81.5907 -55.2334 91.5142 -22.5647 6.16736 -8.82491 -2.00495 33.1697 -1.39394 -5.46267 -0.0882912 -3.47199 -21.1716 0.217032 -5.01367 -26.7368 -1.03355 5.09703 
147.509 97.2977 -148.61 108.067 46.7977 77.2417 -174.824 10.7422 88.0529 -30.7292 16.3015 0.326935 59.1669 2.23286 15.1642 37.2032 -1.06711 -0.608616 171.533 11.4949 83.9604 -62.7505 -10.8855 -1.42002 47.0411 9.46114 11.405 38.5504 -1.62227 2.94304 0.323664 7.96689 -89.6259 10.9379 0.817349 0.663231 -0.732955 0.845748 0.626604 -23.2678 0.580248 0.878204 -3.25514 0.580252 0.878202 101.9 -51.6593 -82.5742 33.0838 -7.38754 -3.93956 -1.14684 -4.58098 -12.5994 -9.43669 -0.44831 0.395726 -81.6268 -55.3618 91.4696 -19.7329 9.08725 -15.0456 1.49756 28.7895 -9.38163 -2.54806 -0.0830694 -5.58733 -19.5609 1.27466 -3.46783 -26.4051 -0.297996 7.50194 
151.22 98.3514 -153.091 108.424 50.316 78.2044 -174.967 7.22839 89.2078 -30.2519 18.1822 1.70228 61.2739 4.07036 14.8913 37.7219 -1.10064 -0.410311 170.608 17.5342 86.3719 -55.9636 -8.23042 0.691641 50.9075 8.22006 12.717 37.3867 -1.47117 2.44614 -0.0786204 8.05741 -89.822 10.7593 -0.0742834 0.36128 -0.911745 -0.0583175 0.364197 -23.4465 -0.17945 0.322246 -3.4339 -0.179427 0.322255 101.602 -51.8506 -83.0276 33.7824 -6.16932 -2.23316 -1.41965 -5.6823 -11.1648 -8.29585 -0.413645 0.65511 -82.0068 -53.257 90.7789 -20.2159 9.72549 -22.4881 5.98104 28.5575 -15.8005 0.00600036 -0.121133 -5.92125 -20.5188 1.2719 -2.92956 -26.5363 -0.282619 7.31012 
154.976 99.0743 -157.172 107.53 53.5083 78.5999 -174.743 3.79901 89.7316 -27.8603 19.8057 2.14258 62.4213 5.26662 14.4106 39.5182 -1.39186 -0.859141 171.545 17.8159 87.3452 -34.076 -7.4089 2.44165 54.7461 6.81831 12.9402 38.0273 -1.87019 1.40228 -0.375535 8.03064 -89.8496 10.8137 -0.678278 0.362344 -0.857089 -0.661655 0.391836 -23.3936 -0.755826 0.141736 -3.38091 -0.755826 0.141733 102.188 -52.0447 -82.1339 34.4085 -5.58441 -1.23316 -1.40521 -5.79009 -10.7727 -8.69284 -0.410919 0.338928 -81.9816 -51.48 90.6894 -18.9437 11.429 -27.4218 8.09089 23.3885 -22.2275 3.04362 -0.197859 -6.63889 -20.1226 1.1255 -3.62479 -27.4925 -0.407827 6.81462 
159.061 99.727 -161.419 107.639 55.7508 76.7729 -174.536 -1.68503 88.9544 -23.0163 23.0207 2.15627 60.8042 5.45509 14.893 45.2208 -1.65284 1.33926 175.672 14.1359 86.391 -14.2049 -1.51208 0.229069 55.4641 8.36691 17.63 32.1334 -0.280462 2.66789 -0.468541 7.9598 -89.8033 10.956 -0.841559 0.471159 -0.714796 -0.820032 0.507739 -23.2519 -0.944261 0.196433 -3.23931 -0.944256 0.196434 102.111 -51.7423 -82.2516 35.3389 -4.51994 -0.0397555 -1.54594 -3.85007 -11.8032 -7.90441 -0.402943 0.800025 -82.1097 -51.1913 90.4751 -17.1815 12.7891 -29.5784 10.5668 22.5641 -27.591 3.26619 -0.227428 -7.15701 -21.298 0.61974 -2.99836 -26.8076 -0.698807 5.88367 
163.376 99.0919 -165.939 109.481 56.7018 73.829 -175.784 -4.95585 88.0559 -26.4135 23.217 3.51629 61.5256 6.67091 15.29 50.6037 -1.35035 4.57231 175.279 12.3799 85.6995 -13.9843 -8.69556 0.346031 51.661 8.40757 11.2406 28.669 0.138625 0.455755 -0.424489 7.86013 -89.8867 11.1542 -0.792155 0.302832 -0.516561 -0.778051 0.337398 -23.0536 -0.84654 0.0507383 -3.04093 -0.84654 0.050743 102.082 -51.9458 -82.2955 34.3591 -4.89653 -0.628868 -1.4525 -4.49344 -11.3338 -8.06683 -0.431929 1.09491 -81.2185 -52.6956 91.9047 -16.549 13.7274 -28.4747 11.4546 23.5654 -29.1075 2.42707 -0.158769 -5.93573 -22.5001 0.360974 -2.32656 -26.9066 -1.0676 6.37982 
167.238 98.5399 -169.582 109.938 58.8187 73.7658 -178.295 -0.733168 90.3373 -38.0466 19.3016 4.80929 59.3075 4.29511 9.14794 57.7734 -1.41966 6.25758 175.234 14.6085 86.2632 -24.0392 -7.15651 0.478323 53.05 9.4993 10.326 24.5879 1.2666 2.37979 -0.39024 7.77557 -90.2657 11.323 -0.900361 -0.438448 -0.347631 -0.918799 -0.398406 -22.8841 -0.726967 -0.688784 -2.87151 -0.726973 -0.688792 102.164 -51.4057 -82.1701 32.8482 -5.68072 -2.38693 -1.65347 -4.03673 -13.6759 -8.33984 -0.428086 0.83577 -81.7211 -54.236 91.2626 -20.1053 12.1214 -24.8235 9.17595 26.9211 -22.5842 2.6361 -0.162815 -6.06072 -21.7684 -0.487896 -1.85717 -26.7608 -1.74419 5.64937 
170.602 98.1581 -172.189 110.766 61.6437 73.4492 -179.954 9.03359 91.1052 -53.9908 17.4019 5.00154 53.4934 -0.517123 3.68393 52.6443 -1.06433 6.29292 174.302 14.3437 87.0477 -29.4981 -7.95983 1.80123 60.1573 6.26874 7.33488 25.6918 0.7327 0.035387 -0.363715 7.73936 -90.4249 11.3917 -0.921849 -0.753386 -0.279104 -0.95412 -0.712086 -22.814 -0.652825 -0.995593 -2.80136 -0.652825 -0.9956 101.983 -52.0831 -82.4466 31.0105 -7.16236 -3.35985 -2.28186 -3.77132 -18.4418 -8.30304 -0.340468 -0.432237 -82.6149 -52.4641 89.826 -24.7474 10.4183 -20.7999 4.95638 31.0915 -13.2896 -1.5325 -0.0963505 -5.16431 -19.6614 -1.19639 -6.29313 -27.8396 -2.93777 7.14752 
173.25 98.6444 -174.497 111.197 61.1342 72.6995 -179.269 13.9511 90.8138 -55.5037 14.9573 4.11921 54.8844 2.00588 8.26984 52.4459 -0.49609 8.27974 174.172 12.0827 87.3326 -30.172 -8.349 1.70177 62.078 5.53147 7.15015 26.1359 0.659574 0.316288 -0.185711 7.88666 -90.4257 11.0983 -0.567249 -0.792912 -0.572727 -0.60159 -0.767183 -23.1064 -0.302735 -0.926724 -3.09371 -0.302736 -0.926725 102.277 -51.3537 -81.998 30.0898 -8.18393 -6.86635 -1.83964 -2.13913 -20.7169 -10.0197 -0.410452 -0.425982 -83.0731 -53.1558 89.2118 -25.3176 8.60579 -18.4821 -1.84399 35.5903 -1.74178 -1.58747 -0.0695493 -3.4007 -18.6869 -1.52787 -7.58802 -27.9501 -3.29824 7.28675 
175.199 99.4366 -176.676 107.995 59.8234 74.6593 -178.591 14.2518 89.524 -41.2375 13.6263 3.09212 57.4574 3.12814 6.62648 54.797 -0.161113 9.78551 174.456 10.6621 87.0614 -28.3902 -8.25827 1.01736 62.2509 5.77784 8.79467 27.097 0.410721 0.209509 -0.0645613 7.82369 -90.2862 11.2255 -0.261526 -0.543544 -0.445558 -0.285167 -0.531521 -22.9798 -0.086078 -0.597002 -2.96714 -0.086065 -0.597015 102.616 -51.1576 -81.4757 29.7273 -8.83126 -8.27691 -1.8814 -1.16491 -23.787 -10.5133 -0.397185 -0.823045 -82.6997 -54.152 89.8388 -25.2884 5.81645 -15.4581 -2.67127 39.6692 0.201993 -3.33796 -0.0294967 -0.947947 -19.5478 -2.02321 -6.76997 -25.0554 -3.07239 4.36472 
176.743 100.373 -179.142 106.538 58.8868 76.1523 -178.998 9.30388 88.746 -21.0307 16.0842 2.62988 57.6745 2.79441 5.48129 52.4245 0.207562 11.2635 174.334 7.29952 87.1895 -24.5497 -8.3233 0.842345 62.341 5.26661 9.11809 26.2151 0.83724 1.67338 -0.0718513 7.82804 -90.2678 11.2167 -0.26742 -0.507071 -0.454303 -0.28947 -0.49481 -22.9887 -0.102672 -0.563992 -2.97606 -0.102658 -0.563999 102.719 -51.4132 -81.3187 29.1931 -10.2419 -7.89857 -2.82985 -2.23203 -26.819 -10.6148 -0.387716 -0.971009 -82.9337 -54.6009 89.5388 -25.2004 3.64914 -12.2114 -1.6508 37.5376 -0.00248373 -10.1657 -0.0222752 -5.52108 -17.9706 -2.63304 -6.9218 -25.5113 -3.34116 2.92147 
178.053 100.749 -181.771 105.022 58.5709 79.1294 -178.759 7.1564 89.0132 -14.7084 24.7447 3.37532 52.6999 -0.464407 9.15716 32.8791 -0.453424 0.213467 175.009 4.46806 88.8683 -21.6752 -6.87148 0.488841 62.713 5.44131 10.8093 25.7338 0.87225 1.15129 -0.219987 7.70444 -90.4056 11.4624 -0.627147 -0.744232 -0.208568 -0.659303 -0.715917 -22.7425 -0.374499 -0.898294 -2.7299 -0.374493 -0.898304 102.703 -51.7714 -81.3479 28.685 -10.7732 -7.08447 -3.36526 -3.70932 -26.2803 -10.617 -0.417917 -0.628801 -82.3066 -54.2836 90.4187 -26.3923 3.82752 -11.1156 -1.49961 37.0461 -0.00279813 -10.1916 -0.0503668 -4.95761 -18.1633 -4.40631 -7.20302 -23.3861 -4.60446 -0.0433269 
178.866 100.72 -184.044 103.308 56.4007 81.4618 -177.681 6.33911 89.6123 -15.1829 23.5349 3.22001 52.6556 -0.188533 11.5945 36.0799 -0.626518 1.74787 175.601 4.30565 89.4988 -22.7174 -7.05904 -0.0537836 62.7005 5.09512 11.4498 27.8243 0.620158 2.55275 -0.282415 7.67288 -90.2512 11.5274 -0.679276 -0.431042 -0.143435 -0.697599 -0.400728 -22.679 -0.518311 -0.615261 -2.66636 -0.518333 -0.615261 103.232 -53.3705 -80.572 28.4107 -9.90123 -8.98918 -2.22882 -4.96919 -19.4144 -10.3913 -0.478893 0.207818 -82.56 -54.0331 90.0333 -25.1726 6.05786 -12.3378 -2.01157 32.993 -0.497829 -6.46989 -0.0768062 -4.31913 -18.5639 -10.1145 -7.65184 -18.3762 -9.12211 -11.1884 
178.975 100.422 -185.458 102.802 53.8655 81.2885 -176.228 5.96304 89.2716 -16.3423 22.6808 1.92154 54.3795 0.465387 12.5621 36.5445 -0.926056 -0.179702 176.026 6.6984 88.7928 -27.6584 -7.12991 -0.992005 61.2578 4.95087 11.902 32.7528 0.0404377 4.92483 -0.708677 7.90057 -89.8839 11.0759 -1.35674 0.365015 -0.594432 -1.33934 0.424375 -23.1353 -1.4037 -0.0596927 -3.12259 -1.4037 -0.0596952 102.556 -52.5729 -81.5789 29.9596 -11.0477 -12.9514 -0.945845 -9.01101 -11.4345 -10.0142 -0.62935 2.18629 -83.8479 -51.1591 87.8702 -26.7878 7.49266 -11.6215 2.07336 29.439 -7.51288 0.993656 -0.0843295 -3.65995 -22.7757 -21.6208 -8.86337 -14.4844 -20.2205 -28.138 
178.534 99.6385 -186.435 100.906 50.119 83.3995 -175.287 8.35191 89.3404 -21.2133 20.7408 1.12103 57.4134 1.9596 14.4077 36.8716 -1.02773 -0.621941 177.001 12.8718 88.5694 -36.2093 -8.19283 -1.49386 57.8746 5.95872 13.4219 35.4108 -0.804585 3.50166 -1.31115 8.22281 -89.6813 10.4387 -2.46566 0.850016 -1.23025 -2.42585 0.95776 -23.7841 -2.60707 0.0692101 -3.77142 -2.60707 0.0692041 101.474 -52.1513 -83.2205 28.9123 -15.4548 -17.7608 1.10184 -8.92213 -9.21863 -12.0568 -0.633935 0.997705 -85.2655 -45.6212 84.9873 -30.4227 6.87563 -10.3695 7.44841 24.3687 -16.832 2.91118 -0.141181 -5.46203 -23.9682 -31.3904 -13.5256 -18.7703 -27.9387 -40.6252 
178.328 99.7963 -187.243 100.848 46.9174 83.6373 -174.63 7.06562 89.31 -20.3254 19.18 0.515143 57.1341 1.87966 15.2065 37.6407 -1.13923 -0.742712 178.6 15.6202 88.8607 -39.3534 -8.56171 -2.49146 61.3686 5.83565 16.7814 38.0501 -0.652464 6.33136 -1.89675 8.42664 -89.586 10.041 -3.59148 1.11951 -1.62559 -3.53871 1.27666 -24.2006 -3.76169 -0.0131275 -4.18797 -3.76167 -0.0131225 101.618 -51.2782 -83.0095 28.4309 -18.1113 -21.267 1.40063 -10.7578 -8.86173 -10.0431 -0.563643 1.4078 -86.138 -41.7126 82.941 -31.295 6.11284 -11.4694 10.1741 27.412 -19.145 0.148434 -0.134625 -6.37419 -22.3425 -33.1777 -14.8914 -19.0557 -29.1821 -43.2034 
179.069 100.421 -188.922 98.1374 43.7507 87.0513 -173.544 5.5382 90.4038 -16.6533 17.1025 0.113159 57.2918 1.96748 15.0822 36.7446 -1.16368 -1.72684 179.01 12.837 89.9883 -28.756 -12.0787 -2.01461 63.1691 3.61697 13.2085 36.1076 -1.18701 2.74622 -2.05137 8.22122 -89.7265 10.4516 -3.9609 0.891773 -1.21375 -3.91781 1.06547 -23.7975 -4.04551 -0.341844 -3.78484 -4.04551 -0.341851 101.695 -51.3839 -82.8918 29.2932 -17.4374 -20.1418 0.0188895 -11.109 -11.6394 -9.8921 -0.502577 0.767114 -85.5762 -39.5244 83.5046 -31.9508 5.08408 -13.4399 10.5781 27.398 -18.5098 -0.015577 -0.118203 -5.7292 -24.9063 -32.6284 -16.9017 -15.4593 -30.407 -42.5314 
